# xmcd
# 
# Track frame offsets:
#   150
#   16755
#   32337
#   49910
#   68915
#   87292
#   105720
#   121492
#   137962
#   154165
#   173527
#   191780
#   207800
#   230662
#   248185
# 
# Disc length: 3489 seconds
# 
# Revision: 2
# Processed by: cddbd v1.5.2PL0 Copyright (c) Steve Scherf et al.
# Submitted via: Synapstar 1.0 
# 
DISCID=c90d9f0f
DTITLE=Various Artist - Mm6028
DYEAR=2004
DGENRE=Country
TTITLE0=Garth Brooks - American Honky Tonk Bar Association
TTITLE1=Travis Tritt - Looking Out For Number One
TTITLE2=Tanya Tucker - Soon
TTITLE3=Brooks And Dunn - She Used To Be Mine
TTITLE4=Joe Diffie - Prop Me Up Beside The Jukebox
TTITLE5=Trisha Yearwood - Down On My Knees
TTITLE6=Alan Jackson - Mercury Blues
TTITLE7=Lorrie Morgan - Half Enough
TTITLE8=Toby Keith - He Ain't Worth Missing
TTITLE9=John Michael Montgomery - I Love The Way You Love Me
TTITLE10=Patty Loveless - Nothing But The Wheel
TTITLE11=Steve Wariner - If I Didn't Love You
TTITLE12=Garth Brooks - That Summer
TTITLE13=Mary Chapin Carpenter - The Bug
TTITLE14=Travis Tritt - The Whiskey Ain't Workin'
EXTD=MediaType: Karaoke CD+G Producer: Unknown
EXTT0=
EXTT1=
EXTT2=
EXTT3=
EXTT4=
EXTT5=
EXTT6=
EXTT7=
EXTT8=
EXTT9=
EXTT10=
EXTT11=
EXTT12=
EXTT13=
EXTT14=
PLAYORDER=
